<svg width="685" height="157" viewBox="0 0 685 157" fill="none" xmlns="http://www.w3.org/2000/svg">
<path d="M65.578 37.9617H84.5078V121.787H66.4231V110.621H66.0851C60.0005 118.981 51.268 123.161 39.8877 123.161C28.2819 123.161 18.7044 119.21 11.155 111.309C3.71834 103.407 0 93.0434 0 80.2177C0 67.6211 3.77468 57.2575 11.324 49.1269C18.8734 40.8818 28.3383 36.7593 39.7186 36.7593C50.5356 36.7593 59.0428 40.5383 65.24 48.0963H65.578V37.9617ZM42.9299 105.64C49.4652 105.64 54.9864 103.292 59.4935 98.5974C64.1132 93.9023 66.4231 87.833 66.4231 80.3895C66.4231 72.946 64.1696 66.705 59.6625 61.6663C55.2681 56.6276 49.6906 54.1083 42.9299 54.1083C36.1693 54.1083 30.5355 56.5131 26.0284 61.3228C21.5213 66.1324 19.2678 72.488 19.2678 80.3895C19.2678 87.833 21.465 93.9023 25.8594 98.5974C30.2538 103.292 35.944 105.64 42.9299 105.64Z" fill="white"/>
<path d="M166.705 37.9617H185.634V113.198C185.634 126.711 182.254 137.361 175.494 145.148C168.733 153.049 158.085 157 143.55 157C130.704 157 119.493 154.08 109.916 148.24L114.479 131.406C119.775 134.269 124.395 136.33 128.338 137.59C132.395 138.964 137.127 139.651 142.536 139.651C150.31 139.651 156.338 137.647 160.62 133.639C164.902 129.745 167.043 124.879 167.043 119.038V110.106H166.874C160.338 116.977 151.944 120.412 141.69 120.412C130.085 120.412 120.451 116.576 112.789 108.904C105.239 101.231 101.465 91.2684 101.465 79.0153C101.465 66.7622 105.127 56.6276 112.451 48.6116C119.887 40.5956 129.296 36.5875 140.676 36.5875C151.043 36.5875 159.606 40.023 166.367 46.8939H166.705V37.9617ZM144.226 102.72C151.099 102.72 156.676 100.43 160.958 95.849C165.353 91.1539 167.55 85.2564 167.55 78.1565C167.55 71.171 165.296 65.4453 160.789 60.9792C156.395 56.5131 150.874 54.2801 144.226 54.2801C137.24 54.2801 131.55 56.5704 127.155 61.151C122.873 65.6171 120.733 71.4001 120.733 78.5C120.733 85.829 122.93 91.7265 127.324 96.1926C131.831 100.544 137.465 102.72 144.226 102.72Z" fill="white"/>
<path d="M227.284 21.8151C224.805 24.3344 221.819 25.5941 218.326 25.5941C214.833 25.5941 211.847 24.3344 209.368 21.8151C206.889 19.2958 205.65 16.2611 205.65 12.7112C205.65 9.27571 206.889 6.29833 209.368 3.779C211.847 1.25967 214.833 0 218.326 0C221.819 0 224.805 1.25967 227.284 3.779C229.875 6.29833 231.171 9.27571 231.171 12.7112C231.171 16.2611 229.875 19.2958 227.284 21.8151ZM208.861 121.787V37.9617H227.791V121.787H208.861Z" fill="white"/>
<path d="M383.896 36.7593H386.262V58.2309C383.333 58.0018 381.417 57.8873 380.516 57.8873C373.53 57.8873 368.009 60.1776 363.952 64.7582C360.009 69.2243 358.037 75.0073 358.037 82.1072V121.787H339.107V37.9617H358.037V50.6729H358.206C364.854 41.3972 373.417 36.7593 383.896 36.7593Z" fill="white"/>
<path d="M419.908 21.8151C417.43 24.3344 414.444 25.5941 410.951 25.5941C407.458 25.5941 404.472 24.3344 401.993 21.8151C399.514 19.2958 398.274 16.2611 398.274 12.7112C398.274 9.27571 399.514 6.29833 401.993 3.779C404.472 1.25967 407.458 0 410.951 0C414.444 0 417.43 1.25967 419.908 3.779C422.5 6.29833 423.796 9.27571 423.796 12.7112C423.796 16.2611 422.5 19.2958 419.908 21.8151ZM401.486 121.787V37.9617H420.415V121.787H401.486Z" fill="white"/>
<path d="M489.959 36.7593C501.452 36.7593 510.973 40.8818 518.522 49.1269C526.072 57.2575 529.846 67.6211 529.846 80.2177C529.846 93.0434 526.072 103.407 518.522 111.309C510.973 119.21 501.395 123.161 489.79 123.161C478.747 123.161 470.071 119.267 463.761 111.48H463.592V155.798H444.663V37.9617H463.592V48.2681C469.902 40.5956 478.691 36.7593 489.959 36.7593ZM469.677 98.5974C474.297 103.292 480.043 105.64 486.916 105.64C493.79 105.64 499.424 103.292 503.818 98.5974C508.325 93.9023 510.579 87.833 510.579 80.3895C510.579 72.488 508.269 66.1324 503.649 61.3228C499.142 56.5131 493.508 54.1083 486.747 54.1083C479.761 54.1083 474.015 56.6276 469.508 61.6663C465.001 66.5905 462.747 72.8315 462.747 80.3895C462.747 87.833 465.057 93.9023 469.677 98.5974Z" fill="white"/>
<path d="M571.794 123.161C564.583 123.161 558.949 120.813 554.892 116.118C550.836 111.423 548.808 104.495 548.808 95.3337V54.2801H538.667V37.9617H548.808V10.1346L567.738 8.0733V37.9617H591.907V54.2801H567.738V93.4442C567.738 97.6813 568.357 100.716 569.597 102.548C570.836 104.266 572.864 105.125 575.681 105.125C579.4 105.125 583.456 103.922 587.85 101.518L592.752 118.179C586.78 121.5 579.794 123.161 571.794 123.161Z" fill="white"/>
<path d="M641.732 123.161C628.887 123.161 618.464 119.096 610.464 110.965C602.464 102.834 598.464 92.5281 598.464 80.046C598.464 67.5638 602.464 57.2575 610.464 49.1269C618.464 40.8818 628.887 36.7593 641.732 36.7593C654.464 36.7593 664.831 40.7673 672.831 48.7834C680.944 56.7994 685 67.2203 685 80.046C685 92.7571 680.944 103.121 672.831 111.137C664.831 119.153 654.464 123.161 641.732 123.161ZM641.732 105.64C648.493 105.64 654.183 103.235 658.803 98.4256C663.422 93.616 665.732 87.4894 665.732 80.046C665.732 72.3735 663.422 66.1324 658.803 61.3228C654.295 56.5131 648.605 54.1083 641.732 54.1083C634.633 54.1083 628.83 56.5704 624.323 61.4945C619.929 66.4187 617.732 72.6025 617.732 80.046C617.732 87.2604 619.985 93.3297 624.492 98.2538C629 103.178 634.746 105.64 641.732 105.64Z" fill="white"/>
<path d="M289.693 125.696C275.005 125.424 263.036 120.342 253.788 110.451C244.68 100.421 240.265 87.6608 240.542 72.1695C240.819 56.6783 245.758 44.0907 255.357 34.4069C265.095 24.7256 277.377 20.0221 292.204 20.2962C299.964 20.4397 307.417 22.1976 314.565 25.5699C321.854 28.804 327.87 33.4233 332.614 39.4278L320.789 49.5635C314.153 40.8474 304.807 36.3778 292.752 36.1549C282.636 35.9679 274.26 39.2645 267.624 46.0447C261.126 52.8275 257.78 61.6408 257.586 72.4847C257.389 83.4694 260.416 92.471 266.667 99.4895C272.92 106.367 281.174 109.901 291.428 110.09C303.206 110.308 312.841 106.401 320.331 98.3687L331.782 109.146C327.257 114.134 321.293 118.18 313.891 121.283C306.489 124.386 298.423 125.857 289.693 125.696Z" fill="white"/>
<path d="M318.686 140.435L305.688 109.939L314.784 106.056L327.782 136.552L318.686 140.435Z" fill="white"/>
<path d="M302.01 147.555L289.8 118.91L298.896 115.026L311.106 143.672L302.01 147.555Z" fill="white"/>
<path d="M275.59 38.6161L264.134 11.7382L273.229 7.85464L284.686 34.7326L275.59 38.6161Z" fill="white"/>
<path d="M258.254 44.8964L247.214 18.9951L256.31 15.1115L267.35 41.0128L258.254 44.8964Z" fill="white"/>
</svg>
